<svg xmlns="http://www.w3.org/2000/svg" viewBox="0 0 1200 760" role="img" aria-label="Compliance laboratory placeholder">
  <rect width="1200" height="760" fill="#f6f8f4"/>
  <rect x="72" y="96" width="1056" height="520" rx="18" fill="#ffffff" stroke="#dfe6dc" stroke-width="4"/>
  <rect x="112" y="142" width="360" height="330" rx="12" fill="#edf2ee"/>
  <path d="M158 420h268M158 360h268M158 300h268" stroke="#cbd7d0" stroke-width="8" stroke-linecap="round"/>
  <rect x="530" y="150" width="214" height="410" rx="16" fill="#dbe5e2"/>
  <rect x="574" y="198" width="126" height="250" rx="18" fill="#ffffff"/>
  <path d="M606 403c38-2 61-26 71-69 27 33 49 52 85 55-31 48-82 62-156 14Z" fill="#2f6f4e"/>
  <rect x="804" y="154" width="260" height="82" rx="12" fill="#14213d"/>
  <rect x="804" y="270" width="260" height="82" rx="12" fill="#2f6f4e"/>
  <rect x="804" y="386" width="260" height="82" rx="12" fill="#c6842e"/>
  <g font-family="Arial, sans-serif" font-size="28" font-weight="700" fill="#ffffff">
    <text x="934" y="206" text-anchor="middle">TRACEABLE</text>
    <text x="934" y="322" text-anchor="middle">CERTIFIED</text>
    <text x="934" y="438" text-anchor="middle">EXPORT READY</text>
  </g>
</svg>
