<svg xmlns="http://www.w3.org/2000/svg" viewBox="0 0 1600 900" role="img" aria-label="Factory walkthrough placeholder">
  <defs>
    <linearGradient id="bg" x1="0" x2="1" y1="0" y2="1">
      <stop stop-color="#dfe6dc"/>
      <stop offset=".55" stop-color="#f6f8f4"/>
      <stop offset="1" stop-color="#cfd9cf"/>
    </linearGradient>
    <linearGradient id="steel" x1="0" x2="1">
      <stop stop-color="#9eaeb3"/>
      <stop offset="1" stop-color="#eef2ef"/>
    </linearGradient>
  </defs>
  <rect width="1600" height="900" fill="url(#bg)"/>
  <path d="M0 690c230-52 420-60 640-18 255 49 445 25 660-40 103-31 201-43 300-38v306H0Z" fill="#edf1e9"/>
  <rect x="120" y="170" width="520" height="395" rx="8" fill="#ffffff" opacity=".78"/>
  <rect x="180" y="225" width="130" height="270" rx="18" fill="url(#steel)"/>
  <rect x="340" y="210" width="210" height="300" rx="22" fill="#d8e0dc"/>
  <circle cx="445" cy="360" r="82" fill="#ffffff" opacity=".85"/>
  <path d="M398 371c41-9 66-36 78-83 33 39 56 64 99 68-35 55-92 75-177 15Z" fill="#2f6f4e" opacity=".88"/>
  <rect x="690" y="245" width="600" height="42" rx="21" fill="#7f9395"/>
  <rect x="840" y="327" width="430" height="46" rx="23" fill="#a7b5b0"/>
  <rect x="760" y="460" width="650" height="64" rx="32" fill="#c6842e" opacity=".82"/>
  <rect x="955" y="565" width="250" height="165" rx="12" fill="#f8f5ec" stroke="#d4c6a7" stroke-width="8"/>
  <path d="M995 640c40-2 68-28 80-73 30 36 55 54 96 57-35 50-94 65-176 16Z" fill="#2f6f4e"/>
  <text x="1080" y="705" text-anchor="middle" font-family="Arial, sans-serif" font-size="32" font-weight="700" fill="#14213d">RM</text>
  <text x="1080" y="742" text-anchor="middle" font-family="Arial, sans-serif" font-size="20" fill="#54707e">PSYLLIUM</text>
</svg>
