<svg xmlns="http://www.w3.org/2000/svg" viewBox="0 0 220 100">
  <!-- Background -->
  <rect width="220" height="100" rx="8" fill="#1A3A6B"/>
  <rect x="3" y="3" width="214" height="94" rx="6" fill="none" stroke="rgba(245,166,35,0.35)" stroke-width="1"/>

  <!-- Left wheat stalk -->
  <line x1="28" y1="82" x2="28" y2="28" stroke="#F5A623" stroke-width="1.5" opacity="0.7"/>
  <ellipse cx="28" cy="26" rx="4.5" ry="9" fill="#F5A623" opacity="0.85" transform="rotate(0 28 26)"/>
  <ellipse cx="22" cy="42" rx="4" ry="8" fill="#F5A623" opacity="0.75" transform="rotate(-28 22 42)"/>
  <ellipse cx="34" cy="42" rx="4" ry="8" fill="#F5A623" opacity="0.75" transform="rotate(28 34 42)"/>
  <ellipse cx="22" cy="58" rx="3.5" ry="7" fill="#F5A623" opacity="0.6" transform="rotate(-22 22 58)"/>
  <ellipse cx="34" cy="58" rx="3.5" ry="7" fill="#F5A623" opacity="0.6" transform="rotate(22 34 58)"/>

  <!-- Right wheat stalk -->
  <line x1="192" y1="82" x2="192" y2="28" stroke="#F5A623" stroke-width="1.5" opacity="0.7"/>
  <ellipse cx="192" cy="26" rx="4.5" ry="9" fill="#F5A623" opacity="0.85" transform="rotate(0 192 26)"/>
  <ellipse cx="186" cy="42" rx="4" ry="8" fill="#F5A623" opacity="0.75" transform="rotate(-28 186 42)"/>
  <ellipse cx="198" cy="42" rx="4" ry="8" fill="#F5A623" opacity="0.75" transform="rotate(28 198 42)"/>
  <ellipse cx="186" cy="58" rx="3.5" ry="7" fill="#F5A623" opacity="0.6" transform="rotate(-22 186 58)"/>
  <ellipse cx="198" cy="58" rx="3.5" ry="7" fill="#F5A623" opacity="0.6" transform="rotate(22 198 58)"/>

  <!-- FSSAI text -->
  <text x="110" y="56" font-family="Arial Black,Arial,sans-serif" font-size="30" font-weight="900" fill="white" text-anchor="middle" letter-spacing="-0.5">FSSAI</text>
  <!-- India text -->
  <text x="110" y="74" font-family="Arial,sans-serif" font-size="10.5" font-weight="700" fill="#F5A623" text-anchor="middle" letter-spacing="3.5">INDIA</text>
  <!-- Subtitle -->
  <text x="110" y="89" font-family="Arial,sans-serif" font-size="6.5" font-weight="400" fill="rgba(255,255,255,0.45)" text-anchor="middle" letter-spacing="0.8">FOOD SAFETY &amp; STANDARDS AUTHORITY</text>
</svg>
