<svg xmlns="http://www.w3.org/2000/svg" viewBox="0 0 220 100">
  <rect width="220" height="100" rx="8" fill="#7A1414"/>
  <rect x="3" y="3" width="214" height="94" rx="6" fill="none" stroke="rgba(245,196,160,0.3)" stroke-width="1"/>

  <!-- Chili pepper illustration -->
  <!-- Main body -->
  <path d="M52,75 Q38,60 38,45 Q38,28 50,22 Q58,18 62,25 Q65,20 70,22 Q78,28 76,45 Q74,60 62,75 Z" fill="#CC3300"/>
  <path d="M52,75 Q38,60 38,45 Q38,28 50,22 Q55,19 57,24 Q52,30 52,45 Q52,62 58,75 Z" fill="#AA2200" opacity="0.6"/>
  <!-- Highlight -->
  <path d="M55,28 Q60,25 64,30 Q62,27 57,27 Z" fill="rgba(255,255,255,0.3)"/>
  <!-- Stem -->
  <path d="M62,22 Q65,12 72,8" stroke="#2D5A1A" stroke-width="2.5" fill="none" stroke-linecap="round"/>
  <!-- Leaf on stem -->
  <path d="M66,14 Q74,8 78,14 Q72,18 66,14Z" fill="#3A7A22"/>

  <!-- Text -->
  <text x="148" y="38" font-family="Arial Black,Arial,sans-serif" font-size="16" font-weight="900" fill="white" text-anchor="middle" letter-spacing="0.3">SPICES BOARD</text>
  <text x="148" y="60" font-family="Arial,sans-serif" font-size="10.5" font-weight="700" fill="#F5C4A0" text-anchor="middle" letter-spacing="3">INDIA</text>
  <text x="148" y="78" font-family="Arial,sans-serif" font-size="7" font-weight="400" fill="rgba(255,255,255,0.45)" text-anchor="middle" letter-spacing="0.8">MINISTRY OF COMMERCE &amp; INDUSTRY</text>
</svg>
